<?xml version="1.0" encoding="utf-8"?>
<!-- Generator: Adobe Illustrator 27.6.1, SVG Export Plug-In . SVG Version: 6.00 Build 0)  -->
<svg version="1.1" id="레이어_1" xmlns="http://www.w3.org/2000/svg" xmlns:xlink="http://www.w3.org/1999/xlink" x="0px"
	 y="0px" viewBox="0 0 800 800" style="enable-background:new 0 0 800 800;" xml:space="preserve">
<style type="text/css">
	.st0{fill:none;stroke:#000000;stroke-width:75;stroke-linecap:round;stroke-linejoin:round;stroke-miterlimit:133.3333;}
	.st1{fill:none;stroke:#000000;stroke-width:80;stroke-linecap:round;stroke-miterlimit:133.3333;}
	.st2{fill:none;stroke:#000000;stroke-width:80;stroke-miterlimit:133.3333;}
</style>
<path class="st0" d="M400,233.2v233.5 M400,466.7l100.1-100.1 M400,466.7L299.9,366.6"/>
<path class="st1" d="M532.9,566.1H400H267.1"/>
<path class="st2" d="M40.4,400c0-169.5,0-254.3,52.7-306.9C145.7,40.4,230.5,40.4,400,40.4c169.5,0,254.3,0,306.9,52.7
	c52.7,52.7,52.7,137.4,52.7,306.9c0,169.5,0,254.3-52.7,306.9c-52.7,52.7-137.4,52.7-306.9,52.7c-169.5,0-254.3,0-306.9-52.7
	C40.4,654.3,40.4,569.5,40.4,400z"/>
</svg>
