<?xml version="1.0" encoding="utf-8"?>
<!-- Generator: Adobe Illustrator 27.6.1, SVG Export Plug-In . SVG Version: 6.00 Build 0)  -->
<svg version="1.1" id="레이어_1" xmlns="http://www.w3.org/2000/svg" xmlns:xlink="http://www.w3.org/1999/xlink" x="0px"
	 y="0px" viewBox="0 0 800 800" style="enable-background:new 0 0 800 800;" xml:space="preserve">
<style type="text/css">
	.st0{fill-rule:evenodd;clip-rule:evenodd;fill:#434343;}
</style>
<g>
	<g transform="translate(1.000000, 0.000000)">
		<path class="st0" d="M682,117C526-39,272-39,116,117C-40,273-40,527,116,683c156,155.9,410,156,566,0C838,526.9,838,273,682,117
			L682,117z M177.6,621.4C55.3,499.2,55.2,300.3,177.3,178.3c122-122.1,320.9-121.9,443.2,0.3c122.2,122.2,122.3,321.1,0.3,443.2
			C498.6,743.8,299.8,743.6,177.6,621.4L177.6,621.4z"/>
		<path class="st0" d="M507.4,552.8c-9.1,0-16-3.6-19.5-7.1l-88.6-88.5l-85,85c-3.3,3.3-11,7.3-21.2,7.3c-7.7,0-19.3-2.3-30.2-13.3
			c-11.1-11-13.5-22-13.6-29.1c-0.2-9.4,3.5-16.5,7-20.1l86.4-86.5l-84.2-84.1c-7.6-7.7-14-31.4,6-51.4
			c11.3-11.3,22.4-13.6,29.7-13.6c9.2,0,16,3.6,19.4,7.1l85.6,85.5l85-85c3.4-3.4,11-7.3,21.3-7.3c7.7,0,19.3,2.3,30.3,13.3
			c19,19,15.1,40.6,6.6,49.1l-86.5,86.5l87.1,87c3.4,3.4,7.3,11,7.3,21.3c0,7.7-2.3,19.2-13.3,30.2
			C525.8,550.5,514.8,552.8,507.4,552.8L507.4,552.8L507.4,552.8z"/>
	</g>
</g>
</svg>
